# xmcd CD database file
#
# Track frame offsets:
#	150
#	12410
#	20987
#	35752
#	48625
#	60445
#	73382
#	84717
#	94467
#	106777
#	119470
#	132475
#
# Disc length: 1933 seconds
#
# Revision: 1
# Processed by: cddbd v1.5.2PL0 Copyright (c) Steve Scherf et al.
# Submitted via: CDex 1.70beta2
#
DISCID=b5078b0c
DTITLE=Town Hall Band , The - Town Hall Party - Town Hall Party
DYEAR=1957
DGENRE=Country
TTITLE0=Joe Maphis and Town Hall Band - Town Hall Shuffle 
TTITLE1=Collins Kids - Just Because
TTITLE2=Freddie Hart - Lonesome Love
TTITLE3=Dortha Wright - Cold, Cold Heart 
TTITLE4=Johnny Bond - Oklahoma Waltz 
TTITLE5=Jenks Tex Carman - Each Minute Seems A Million Years 
TTITLE6=Joe Maphis and Town Hall Band - Tennessee Two Step
TTITLE7=Tex Ritter - Wagon Wheels 
TTITLE8=Les Carrot Top Anderson - My Little Red Wagon
TTITLE9=Joe and Rose Lee Maphis - Sweeter Than The Flowers
TTITLE10=Bobby Charles - Kentucky Waltz
TTITLE11=Entire Cast - Wait For The Light To Shine 
EXTD=Bear Family Records  ISBN 3-89916-091-6  BCD 16729 AH YEAR: 1957
EXTT0=
EXTT1=
EXTT2=
EXTT3=
EXTT4=
EXTT5=
EXTT6=
EXTT7=
EXTT8=
EXTT9=
EXTT10=
EXTT11=
PLAYORDER=
